<?xml version="1.0" encoding="utf-8"?>
<!-- Generator: Adobe Illustrator 16.0.3, SVG Export Plug-In . SVG Version: 6.00 Build 0)  -->
<!DOCTYPE svg PUBLIC "-//W3C//DTD SVG 1.1//EN" "http://www.w3.org/Graphics/SVG/1.1/DTD/svg11.dtd">
<svg version="1.1" id="Capa_1" xmlns="http://www.w3.org/2000/svg" xmlns:xlink="http://www.w3.org/1999/xlink" x="0px" y="0px"
	 width="80px" height="60px" viewBox="0 0 160 60" enable-background="new 0 0 160 60" xml:space="preserve">
<path fill="#000DFF" stroke="#0000FF" stroke-miterlimit="10" d="M47.116,36.05"/>
<path fill="#000DFF" stroke="#0000FF" stroke-miterlimit="10" d="M47.116,37.979"/>
<path fill="none" stroke="#000000" stroke-miterlimit="10" d="M80.379,50.112"/>
<path fill="#B600D6" d="M23.559,40.549l7.727-23.63c0,0,1.928-6.758,7.726-6.758s27.063,0,27.063,0s-1.937,6.786-7.735,6.786
	l-15.462-0.05c0,0-3.866,0-5.798,6.749l-3.866,10.123C33.213,33.768,29.367,40.58,23.559,40.549z"/>
<path fill="#B600D6" d="M23.534,45.125h30.532c0,0,4.518,0.035,6.042-5.645l3.047-14.18c0,0,0-2.819-3.047-2.819s-18.297,0-18.297,0
	s1.537,4.208,6.108,5.611h6.148c0,0,2.994,0.028,2.994,2.868l-1.523,5.696c0,0-1.523,2.857-3.047,2.857s-22.827,0-22.827,0
	S26.578,39.409,23.534,45.125z"/>
</svg>
