<?xml version="1.0" encoding="utf-8"?>
<!-- Generator: Adobe Illustrator 16.0.3, SVG Export Plug-In . SVG Version: 6.00 Build 0)  -->
<!DOCTYPE svg PUBLIC "-//W3C//DTD SVG 1.1//EN" "http://www.w3.org/Graphics/SVG/1.1/DTD/svg11.dtd">
<svg version="1.1" id="Capa_1" xmlns="http://www.w3.org/2000/svg" xmlns:xlink="http://www.w3.org/1999/xlink" x="0px" y="0px"
	 width="160px" height="60px" viewBox="0 0 960 560" enable-background="new 0 0 960 560" xml:space="preserve">
<path fill="#000DFF" stroke="#0000FF" stroke-miterlimit="10" d="M173.079,336.465"/>
<path fill="#000DFF" stroke="#0000FF" stroke-miterlimit="10" d="M173.079,354.465"/>
<path fill="none" stroke="#000000" stroke-miterlimit="10" d="M483.543,467.717"/>
<rect x="14.5" y="56.5" fill="#00E1FF" stroke="#0000FF" stroke-miterlimit="10" width="482" height="454"/>
<path fill="#000DFF" stroke="#0000FF" stroke-miterlimit="10" d="M55.882,397.118l72.111-220.545c0,0,17.993-63.073,72.111-63.073
	s252.588,0,252.588,0s-18.08,63.33-72.196,63.33l-144.313-0.468c0,0-36.078,0-54.118,62.988l-36.079,94.483
	C145.986,333.833,110.089,397.415,55.882,397.118z"/>
<path fill="#000DFF" stroke="#0000FF" stroke-miterlimit="10" d="M55.653,454.5h305.844c0,0,45.257,0.35,60.52-56.343
	l30.526-141.521c0,0,0-28.136-30.526-28.136s-183.288,0-183.288,0s15.39,42,61.181,56h61.587c0,0,29.993,0.271,29.993,28.618
	l-15.264,56.864c0,0-15.263,28.518-30.526,28.518c-15.264,0-228.663,0-228.663,0S86.138,397.457,55.653,454.5z"/>
</svg>
